G04 #@! TF.GenerationSoftware,KiCad,Pcbnew,5.0.0-rc3-unknown-520c611~65~ubuntu18.04.1*
G04 #@! TF.CreationDate,2018-07-03T00:15:53+02:00*
G04 #@! TF.ProjectId,vlakinostalo,766C616B696E6F7374616C6F2E6B6963,rev?*
G04 #@! TF.SameCoordinates,Original*
G04 #@! TF.FileFunction,Soldermask,Top*
G04 #@! TF.FilePolarity,Negative*
%FSLAX46Y46*%
G04 Gerber Fmt 4.6, Leading zero omitted, Abs format (unit mm)*
G04 Created by KiCad (PCBNEW 5.0.0-rc3-unknown-520c611~65~ubuntu18.04.1) date Tue Jul  3 00:15:53 2018*
%MOMM*%
%LPD*%
G01*
G04 APERTURE LIST*
%ADD10R,1.950000X1.000000*%
%ADD11R,1.070000X1.400000*%
%ADD12R,1.800000X0.700000*%
%ADD13R,1.800000X1.400000*%
%ADD14R,1.270000X3.190000*%
%ADD15R,1.290000X1.175000*%
%ADD16C,0.900000*%
%ADD17C,0.100000*%
%ADD18O,1.750000X1.750000*%
%ADD19R,1.750000X1.750000*%
%ADD20R,1.400000X1.070000*%
%ADD21R,1.250000X0.700000*%
G04 APERTURE END LIST*
D10*
G04 #@! TO.C,U3*
X148150000Y-96845000D03*
X148150000Y-98115000D03*
X148150000Y-99385000D03*
X148150000Y-100655000D03*
X153550000Y-100655000D03*
X153550000Y-99385000D03*
X153550000Y-98115000D03*
X153550000Y-96845000D03*
G04 #@! TD*
D11*
G04 #@! TO.C,R4*
X147670000Y-108160000D03*
X149420000Y-108160000D03*
G04 #@! TD*
D12*
G04 #@! TO.C,U2*
X148110000Y-102600000D03*
X148110000Y-103100000D03*
X148110000Y-103600000D03*
X148110000Y-104100000D03*
X148110000Y-104600000D03*
X152510000Y-104600000D03*
X152510000Y-104100000D03*
X152510000Y-103600000D03*
X152510000Y-103100000D03*
X152510000Y-102600000D03*
G04 #@! TD*
D11*
G04 #@! TO.C,R3*
X149420000Y-106460000D03*
X147670000Y-106460000D03*
G04 #@! TD*
D13*
G04 #@! TO.C,D1*
X161500000Y-102150000D03*
X161500000Y-108300000D03*
X164040000Y-108300000D03*
X164040000Y-102150000D03*
G04 #@! TD*
D14*
G04 #@! TO.C,L1*
X155655000Y-106320000D03*
D15*
X156225000Y-104762500D03*
D16*
X156201000Y-105272500D03*
D17*
G36*
X156952936Y-105146278D02*
X156093187Y-106027296D01*
X155449064Y-105398722D01*
X156308813Y-104517704D01*
X156952936Y-105146278D01*
X156952936Y-105146278D01*
G37*
D16*
X155676500Y-104827000D03*
D17*
G36*
X156415937Y-104731272D02*
X155567882Y-105564653D01*
X154937063Y-104922728D01*
X155785118Y-104089347D01*
X156415937Y-104731272D01*
X156415937Y-104731272D01*
G37*
D16*
X155676500Y-107813000D03*
D17*
G36*
X155567882Y-107075347D02*
X156415937Y-107908728D01*
X155785118Y-108550653D01*
X154937063Y-107717272D01*
X155567882Y-107075347D01*
X155567882Y-107075347D01*
G37*
D15*
X156225000Y-107877500D03*
D16*
X156201000Y-107367500D03*
D17*
G36*
X156093187Y-106612704D02*
X156952936Y-107493722D01*
X156308813Y-108122296D01*
X155449064Y-107241278D01*
X156093187Y-106612704D01*
X156093187Y-106612704D01*
G37*
D14*
X159185000Y-106320000D03*
D15*
X158615000Y-104762500D03*
D16*
X158639000Y-105272500D03*
D17*
G36*
X158531187Y-104517704D02*
X159390936Y-105398722D01*
X158746813Y-106027296D01*
X157887064Y-105146278D01*
X158531187Y-104517704D01*
X158531187Y-104517704D01*
G37*
D16*
X159163500Y-104827000D03*
D17*
G36*
X159054882Y-104089347D02*
X159902937Y-104922728D01*
X159272118Y-105564653D01*
X158424063Y-104731272D01*
X159054882Y-104089347D01*
X159054882Y-104089347D01*
G37*
D15*
X158615000Y-107877500D03*
D16*
X158639000Y-107367500D03*
D17*
G36*
X159390936Y-107241278D02*
X158531187Y-108122296D01*
X157887064Y-107493722D01*
X158746813Y-106612704D01*
X159390936Y-107241278D01*
X159390936Y-107241278D01*
G37*
D16*
X159163500Y-107813000D03*
D17*
G36*
X159902937Y-107717272D02*
X159054882Y-108550653D01*
X158424063Y-107908728D01*
X159272118Y-107075347D01*
X159902937Y-107717272D01*
X159902937Y-107717272D01*
G37*
G04 #@! TD*
D11*
G04 #@! TO.C,R6*
X161730000Y-97780000D03*
X163480000Y-97780000D03*
G04 #@! TD*
D18*
G04 #@! TO.C,J2*
X169560240Y-97235260D03*
D19*
X169560240Y-99235260D03*
G04 #@! TD*
D20*
G04 #@! TO.C,C2*
X154350000Y-104100000D03*
X154350000Y-102350000D03*
G04 #@! TD*
D21*
G04 #@! TO.C,U1*
X158810000Y-102780000D03*
X158810000Y-102280000D03*
X158810000Y-101780000D03*
X158810000Y-101280000D03*
X156910000Y-101280000D03*
X156910000Y-101780000D03*
X156910000Y-102280000D03*
X156910000Y-102780000D03*
G04 #@! TD*
D19*
G04 #@! TO.C,M1*
X167350000Y-97250000D03*
D18*
X167350000Y-99250000D03*
G04 #@! TD*
D11*
G04 #@! TO.C,C1*
X157850000Y-98000000D03*
X156100000Y-98000000D03*
G04 #@! TD*
D19*
G04 #@! TO.C,J1*
X169545000Y-107856020D03*
D18*
X169545000Y-105856020D03*
G04 #@! TD*
D19*
G04 #@! TO.C,J3*
X167518080Y-101483160D03*
D18*
X169518080Y-101483160D03*
X167518080Y-103483160D03*
X169518080Y-103483160D03*
G04 #@! TD*
M02*
