G04 #@! TF.GenerationSoftware,KiCad,Pcbnew,5.0.0-rc3-unknown-520c611~65~ubuntu18.04.1*
G04 #@! TF.CreationDate,2018-07-03T00:15:53+02:00*
G04 #@! TF.ProjectId,vlakinostalo,766C616B696E6F7374616C6F2E6B6963,rev?*
G04 #@! TF.SameCoordinates,Original*
G04 #@! TF.FileFunction,Copper,L1,Top,Signal*
G04 #@! TF.FilePolarity,Positive*
%FSLAX46Y46*%
G04 Gerber Fmt 4.6, Leading zero omitted, Abs format (unit mm)*
G04 Created by KiCad (PCBNEW 5.0.0-rc3-unknown-520c611~65~ubuntu18.04.1) date Tue Jul  3 00:15:53 2018*
%MOMM*%
%LPD*%
G01*
G04 APERTURE LIST*
G04 #@! TA.AperFunction,SMDPad,CuDef*
%ADD10R,1.550000X0.600000*%
G04 #@! TD*
G04 #@! TA.AperFunction,SMDPad,CuDef*
%ADD11R,0.670000X1.000000*%
G04 #@! TD*
G04 #@! TA.AperFunction,SMDPad,CuDef*
%ADD12R,1.400000X0.300000*%
G04 #@! TD*
G04 #@! TA.AperFunction,SMDPad,CuDef*
%ADD13R,1.400000X1.000000*%
G04 #@! TD*
G04 #@! TA.AperFunction,SMDPad,CuDef*
%ADD14R,0.870000X2.790000*%
G04 #@! TD*
G04 #@! TA.AperFunction,SMDPad,CuDef*
%ADD15R,0.890000X0.775000*%
G04 #@! TD*
G04 #@! TA.AperFunction,SMDPad,CuDef*
%ADD16C,0.500000*%
G04 #@! TD*
G04 #@! TA.AperFunction,Conductor*
%ADD17C,0.100000*%
G04 #@! TD*
G04 #@! TA.AperFunction,ComponentPad*
%ADD18O,1.350000X1.350000*%
G04 #@! TD*
G04 #@! TA.AperFunction,ComponentPad*
%ADD19R,1.350000X1.350000*%
G04 #@! TD*
G04 #@! TA.AperFunction,SMDPad,CuDef*
%ADD20R,1.000000X0.670000*%
G04 #@! TD*
G04 #@! TA.AperFunction,SMDPad,CuDef*
%ADD21R,0.850000X0.300000*%
G04 #@! TD*
G04 #@! TA.AperFunction,ViaPad*
%ADD22C,0.700000*%
G04 #@! TD*
G04 #@! TA.AperFunction,Conductor*
%ADD23C,0.152400*%
G04 #@! TD*
G04 #@! TA.AperFunction,Conductor*
%ADD24C,0.250000*%
G04 #@! TD*
G04 #@! TA.AperFunction,Conductor*
%ADD25C,0.400000*%
G04 #@! TD*
G04 #@! TA.AperFunction,Conductor*
%ADD26C,0.200000*%
G04 #@! TD*
G04 #@! TA.AperFunction,Conductor*
%ADD27C,0.254000*%
G04 #@! TD*
G04 APERTURE END LIST*
D10*
G04 #@! TO.P,U3,1*
G04 #@! TO.N,Net-(M1-Pad1)*
X148150000Y-96845000D03*
G04 #@! TO.P,U3,2*
G04 #@! TO.N,+12V*
X148150000Y-98115000D03*
G04 #@! TO.P,U3,3*
X148150000Y-99385000D03*
G04 #@! TO.P,U3,4*
G04 #@! TO.N,Fin*
X148150000Y-100655000D03*
G04 #@! TO.P,U3,5*
G04 #@! TO.N,Rin*
X153550000Y-100655000D03*
G04 #@! TO.P,U3,6*
G04 #@! TO.N,Net-(U2-Pad7)*
X153550000Y-99385000D03*
G04 #@! TO.P,U3,7*
G04 #@! TO.N,Net-(M1-Pad2)*
X153550000Y-98115000D03*
G04 #@! TO.P,U3,8*
G04 #@! TO.N,GND*
X153550000Y-96845000D03*
G04 #@! TD*
D11*
G04 #@! TO.P,R4,1*
G04 #@! TO.N,+3V3*
X147670000Y-108160000D03*
G04 #@! TO.P,R4,2*
G04 #@! TO.N,SCL*
X149420000Y-108160000D03*
G04 #@! TD*
D12*
G04 #@! TO.P,U2,1*
G04 #@! TO.N,SDA*
X148110000Y-102600000D03*
G04 #@! TO.P,U2,2*
G04 #@! TO.N,GND*
X148110000Y-103100000D03*
G04 #@! TO.P,U2,3*
G04 #@! TO.N,+3V3*
X148110000Y-103600000D03*
G04 #@! TO.P,U2,4*
X148110000Y-104100000D03*
G04 #@! TO.P,U2,5*
X148110000Y-104600000D03*
G04 #@! TO.P,U2,6*
G04 #@! TO.N,+12V*
X152510000Y-104600000D03*
G04 #@! TO.P,U2,7*
G04 #@! TO.N,Net-(U2-Pad7)*
X152510000Y-104100000D03*
G04 #@! TO.P,U2,8*
G04 #@! TO.N,GND*
X152510000Y-103600000D03*
G04 #@! TO.P,U2,9*
G04 #@! TO.N,+12V*
X152510000Y-103100000D03*
G04 #@! TO.P,U2,10*
G04 #@! TO.N,SCL*
X152510000Y-102600000D03*
G04 #@! TD*
D11*
G04 #@! TO.P,R3,2*
G04 #@! TO.N,SDA*
X149420000Y-106460000D03*
G04 #@! TO.P,R3,1*
G04 #@! TO.N,+3V3*
X147670000Y-106460000D03*
G04 #@! TD*
D13*
G04 #@! TO.P,D1,4*
G04 #@! TO.N,GND*
X161500000Y-102150000D03*
G04 #@! TO.P,D1,3*
G04 #@! TO.N,Net-(D1-Pad3)*
X161500000Y-108300000D03*
G04 #@! TO.P,D1,2*
G04 #@! TO.N,Net-(D1-Pad2)*
X164040000Y-108300000D03*
G04 #@! TO.P,D1,1*
G04 #@! TO.N,+12V*
X164040000Y-102150000D03*
G04 #@! TD*
D14*
G04 #@! TO.P,L1,1*
G04 #@! TO.N,Net-(L1-Pad1)*
X155655000Y-106320000D03*
D15*
X156225000Y-104762500D03*
D16*
X156201000Y-105272500D03*
D17*
G04 #@! TD*
G04 #@! TO.N,Net-(L1-Pad1)*
G04 #@! TO.C,L1*
G36*
X156670115Y-105149733D02*
X156089732Y-105744474D01*
X155731885Y-105395267D01*
X156312268Y-104800526D01*
X156670115Y-105149733D01*
X156670115Y-105149733D01*
G37*
D16*
G04 #@! TO.P,L1,1*
G04 #@! TO.N,Net-(L1-Pad1)*
X155676500Y-104827000D03*
D17*
G04 #@! TD*
G04 #@! TO.N,Net-(L1-Pad1)*
G04 #@! TO.C,L1*
G36*
X156133105Y-104728804D02*
X155570350Y-105281821D01*
X155219895Y-104925196D01*
X155782650Y-104372179D01*
X156133105Y-104728804D01*
X156133105Y-104728804D01*
G37*
D16*
G04 #@! TO.P,L1,1*
G04 #@! TO.N,Net-(L1-Pad1)*
X155676500Y-107813000D03*
D17*
G04 #@! TD*
G04 #@! TO.N,Net-(L1-Pad1)*
G04 #@! TO.C,L1*
G36*
X155570350Y-107358179D02*
X156133105Y-107911196D01*
X155782650Y-108267821D01*
X155219895Y-107714804D01*
X155570350Y-107358179D01*
X155570350Y-107358179D01*
G37*
D15*
G04 #@! TO.P,L1,1*
G04 #@! TO.N,Net-(L1-Pad1)*
X156225000Y-107877500D03*
D16*
X156201000Y-107367500D03*
D17*
G04 #@! TD*
G04 #@! TO.N,Net-(L1-Pad1)*
G04 #@! TO.C,L1*
G36*
X156089732Y-106895526D02*
X156670115Y-107490267D01*
X156312268Y-107839474D01*
X155731885Y-107244733D01*
X156089732Y-106895526D01*
X156089732Y-106895526D01*
G37*
D14*
G04 #@! TO.P,L1,2*
G04 #@! TO.N,+3V3*
X159185000Y-106320000D03*
D15*
X158615000Y-104762500D03*
D16*
X158639000Y-105272500D03*
D17*
G04 #@! TD*
G04 #@! TO.N,+3V3*
G04 #@! TO.C,L1*
G36*
X158527732Y-104800526D02*
X159108115Y-105395267D01*
X158750268Y-105744474D01*
X158169885Y-105149733D01*
X158527732Y-104800526D01*
X158527732Y-104800526D01*
G37*
D16*
G04 #@! TO.P,L1,2*
G04 #@! TO.N,+3V3*
X159163500Y-104827000D03*
D17*
G04 #@! TD*
G04 #@! TO.N,+3V3*
G04 #@! TO.C,L1*
G36*
X159057350Y-104372179D02*
X159620105Y-104925196D01*
X159269650Y-105281821D01*
X158706895Y-104728804D01*
X159057350Y-104372179D01*
X159057350Y-104372179D01*
G37*
D15*
G04 #@! TO.P,L1,2*
G04 #@! TO.N,+3V3*
X158615000Y-107877500D03*
D16*
X158639000Y-107367500D03*
D17*
G04 #@! TD*
G04 #@! TO.N,+3V3*
G04 #@! TO.C,L1*
G36*
X159108115Y-107244733D02*
X158527732Y-107839474D01*
X158169885Y-107490267D01*
X158750268Y-106895526D01*
X159108115Y-107244733D01*
X159108115Y-107244733D01*
G37*
D16*
G04 #@! TO.P,L1,2*
G04 #@! TO.N,+3V3*
X159163500Y-107813000D03*
D17*
G04 #@! TD*
G04 #@! TO.N,+3V3*
G04 #@! TO.C,L1*
G36*
X159620105Y-107714804D02*
X159057350Y-108267821D01*
X158706895Y-107911196D01*
X159269650Y-107358179D01*
X159620105Y-107714804D01*
X159620105Y-107714804D01*
G37*
D11*
G04 #@! TO.P,R6,2*
G04 #@! TO.N,Net-(P1-Pad3)*
X161730000Y-97780000D03*
G04 #@! TO.P,R6,1*
G04 #@! TO.N,Net-(Q1-Pad2)*
X163480000Y-97780000D03*
G04 #@! TD*
D18*
G04 #@! TO.P,J2,2*
G04 #@! TO.N,Net-(D1-Pad3)*
X169560240Y-97235260D03*
D19*
G04 #@! TO.P,J2,1*
G04 #@! TO.N,Net-(D1-Pad2)*
X169560240Y-99235260D03*
G04 #@! TD*
D20*
G04 #@! TO.P,C2,1*
G04 #@! TO.N,Net-(C2-Pad1)*
X154350000Y-104100000D03*
G04 #@! TO.P,C2,2*
G04 #@! TO.N,GND*
X154350000Y-102350000D03*
G04 #@! TD*
D21*
G04 #@! TO.P,U1,1*
G04 #@! TO.N,+12V*
X158810000Y-102780000D03*
G04 #@! TO.P,U1,2*
X158810000Y-102280000D03*
G04 #@! TO.P,U1,3*
G04 #@! TO.N,Net-(C2-Pad1)*
X158810000Y-101780000D03*
G04 #@! TO.P,U1,4*
G04 #@! TO.N,+3V3*
X158810000Y-101280000D03*
G04 #@! TO.P,U1,5*
G04 #@! TO.N,GND*
X156910000Y-101280000D03*
G04 #@! TO.P,U1,6*
G04 #@! TO.N,Net-(U1-Pad6)*
X156910000Y-101780000D03*
G04 #@! TO.P,U1,7*
G04 #@! TO.N,GND*
X156910000Y-102280000D03*
G04 #@! TO.P,U1,8*
G04 #@! TO.N,Net-(L1-Pad1)*
X156910000Y-102780000D03*
G04 #@! TD*
D19*
G04 #@! TO.P,M1,1*
G04 #@! TO.N,Net-(M1-Pad1)*
X167350000Y-97250000D03*
D18*
G04 #@! TO.P,M1,2*
G04 #@! TO.N,Net-(M1-Pad2)*
X167350000Y-99250000D03*
G04 #@! TD*
D11*
G04 #@! TO.P,C1,1*
G04 #@! TO.N,+3V3*
X157850000Y-98000000D03*
G04 #@! TO.P,C1,2*
G04 #@! TO.N,GND*
X156100000Y-98000000D03*
G04 #@! TD*
D19*
G04 #@! TO.P,J1,1*
G04 #@! TO.N,GND*
X169545000Y-107856020D03*
D18*
G04 #@! TO.P,J1,2*
G04 #@! TO.N,+12V*
X169545000Y-105856020D03*
G04 #@! TD*
D19*
G04 #@! TO.P,J3,1*
G04 #@! TO.N,Net-(J3-Pad1)*
X167518080Y-101483160D03*
D18*
G04 #@! TO.P,J3,2*
G04 #@! TO.N,+12V*
X169518080Y-101483160D03*
G04 #@! TO.P,J3,3*
G04 #@! TO.N,Net-(J3-Pad3)*
X167518080Y-103483160D03*
G04 #@! TO.P,J3,4*
G04 #@! TO.N,+12V*
X169518080Y-103483160D03*
G04 #@! TD*
D22*
G04 #@! TO.N,SDA*
X150863832Y-99328627D03*
G04 #@! TO.N,SCL*
X152210869Y-99159864D03*
G04 #@! TO.N,Fin*
X148396846Y-101432111D03*
G04 #@! TO.N,Rin*
X152189690Y-101918837D03*
G04 #@! TO.N,GND*
X149809772Y-102260804D03*
X158122800Y-103490200D03*
X153347100Y-101915200D03*
X162859630Y-106680000D03*
X159766000Y-108458000D03*
G04 #@! TO.N,+3V3*
X162132400Y-104014900D03*
X157671900Y-99007200D03*
G04 #@! TO.N,Net-(P1-Pad3)*
X159000200Y-99389400D03*
G04 #@! TO.N,+12V*
X149427412Y-100496177D03*
X151231300Y-103826800D03*
X164084000Y-104140000D03*
G04 #@! TO.N,Net-(Q1-Pad2)*
X163200390Y-100372590D03*
G04 #@! TD*
D23*
G04 #@! TO.N,SDA*
X150188402Y-102883000D02*
X150513833Y-102557569D01*
X150513833Y-102557569D02*
X150513833Y-99678626D01*
X150513833Y-99678626D02*
X150863832Y-99328627D01*
X149178000Y-102883000D02*
X150188402Y-102883000D01*
X148924400Y-102673800D02*
X149178000Y-102883000D01*
X148810000Y-102673800D02*
X148924400Y-102673800D01*
X148733800Y-102673800D02*
X148810000Y-102673800D01*
X148110000Y-102600000D02*
X148733800Y-102673800D01*
X149178000Y-105960000D02*
X149178000Y-102883000D01*
X149178000Y-106036200D02*
X149178000Y-105960000D01*
X149420000Y-106460000D02*
X149178000Y-106036200D01*
G04 #@! TO.N,Net-(U2-Pad7)*
X152510000Y-104100000D02*
X153362400Y-104100000D01*
X154352499Y-102913601D02*
X155032881Y-102913601D01*
X155078601Y-102867881D02*
X155078601Y-101832119D01*
X153486200Y-103976200D02*
X153486200Y-103779900D01*
X155078601Y-101832119D02*
X154866578Y-101620096D01*
X155032881Y-102913601D02*
X155078601Y-102867881D01*
X154866578Y-101620096D02*
X154866578Y-100226578D01*
X153486200Y-103779900D02*
X154352499Y-102913601D01*
X153362400Y-104100000D02*
X153486200Y-103976200D01*
X154025000Y-99385000D02*
X153550000Y-99385000D01*
X154866578Y-100226578D02*
X154025000Y-99385000D01*
G04 #@! TO.N,SCL*
X151960000Y-102600000D02*
X151611088Y-102251088D01*
X151611088Y-101542347D02*
X152210869Y-100942566D01*
X152210869Y-99654838D02*
X152210869Y-99159864D01*
X151611088Y-102251088D02*
X151611088Y-101542347D01*
X152210869Y-100942566D02*
X152210869Y-99654838D01*
X152510000Y-102600000D02*
X151960000Y-102600000D01*
X150441000Y-107244200D02*
X150576400Y-103555500D01*
X149907400Y-108160000D02*
X150039200Y-108028200D01*
X150039200Y-108028200D02*
X150039200Y-107646000D01*
X150039200Y-107646000D02*
X150441000Y-107244200D01*
X150576400Y-103555500D02*
X151531900Y-102600000D01*
X151657600Y-102600000D02*
X152510000Y-102600000D01*
X151531900Y-102600000D02*
X151657600Y-102600000D01*
X149420000Y-108160000D02*
X149907400Y-108160000D01*
D24*
G04 #@! TO.N,Net-(M1-Pad1)*
X148150000Y-96845000D02*
X149175000Y-96845000D01*
X149175000Y-96845000D02*
X149752401Y-96267599D01*
X149752401Y-96267599D02*
X165442599Y-96267599D01*
X165442599Y-96267599D02*
X166425000Y-97250000D01*
X166425000Y-97250000D02*
X167350000Y-97250000D01*
D23*
G04 #@! TO.N,Fin*
X148150000Y-101185265D02*
X148396846Y-101432111D01*
X148150000Y-100655000D02*
X148150000Y-101185265D01*
G04 #@! TO.N,Rin*
X153075000Y-100655000D02*
X152189690Y-101540310D01*
X152189690Y-101540310D02*
X152189690Y-101918837D01*
X153550000Y-100655000D02*
X153075000Y-100655000D01*
D24*
G04 #@! TO.N,Net-(M1-Pad2)*
X155487599Y-98721921D02*
X155543079Y-98777401D01*
X155543079Y-98777401D02*
X156656921Y-98777401D01*
X155285110Y-98115000D02*
X155487599Y-98317489D01*
X155487599Y-98317489D02*
X155487599Y-98721921D01*
X157237599Y-98196723D02*
X157237599Y-97278079D01*
X157690678Y-96825000D02*
X164925000Y-96825000D01*
X166675001Y-98575001D02*
X167350000Y-99250000D01*
X164925000Y-96825000D02*
X166675001Y-98575001D01*
X156656921Y-98777401D02*
X157237599Y-98196723D01*
X157237599Y-97278079D02*
X157690678Y-96825000D01*
X153550000Y-98115000D02*
X155285110Y-98115000D01*
G04 #@! TO.N,GND*
X150159771Y-99117055D02*
X150159771Y-101910805D01*
X152431826Y-96845000D02*
X150159771Y-99117055D01*
X153550000Y-96845000D02*
X152431826Y-96845000D01*
X150159771Y-101910805D02*
X149809772Y-102260804D01*
X156910000Y-102280000D02*
X156235000Y-102280000D01*
X156207599Y-102252599D02*
X156207599Y-101408079D01*
X156335678Y-101280000D02*
X156910000Y-101280000D01*
X156235000Y-102280000D02*
X156207599Y-102252599D01*
X156207599Y-101408079D02*
X156335678Y-101280000D01*
X158122800Y-103490200D02*
X157772801Y-103140201D01*
X157772801Y-103140201D02*
X157772801Y-102568479D01*
X157772801Y-102568479D02*
X157484322Y-102280000D01*
X157484322Y-102280000D02*
X156910000Y-102280000D01*
X154350000Y-102350000D02*
X153781900Y-102350000D01*
X153781900Y-102350000D02*
X153347100Y-101915200D01*
X148110000Y-103100000D02*
X147160000Y-103100000D01*
X147160000Y-103100000D02*
X147132599Y-103072599D01*
X147132599Y-103072599D02*
X147132599Y-102228079D01*
X149226593Y-102172599D02*
X149314798Y-102260804D01*
X147132599Y-102228079D02*
X147188079Y-102172599D01*
X147188079Y-102172599D02*
X149226593Y-102172599D01*
X149314798Y-102260804D02*
X149809772Y-102260804D01*
D25*
X153550000Y-96845000D02*
X154945000Y-96845000D01*
X154945000Y-96845000D02*
X156100000Y-98000000D01*
X158122800Y-103490200D02*
X157772801Y-103840199D01*
X157772801Y-103840199D02*
X157772801Y-107796521D01*
X157772801Y-107796521D02*
X156949091Y-108620231D01*
X156949091Y-108620231D02*
X153600231Y-108620231D01*
X153600231Y-108620231D02*
X153360000Y-108380000D01*
X153360000Y-108380000D02*
X152460000Y-108380000D01*
X161500000Y-102150000D02*
X160159800Y-103490200D01*
X160159800Y-103490200D02*
X158122800Y-103490200D01*
D23*
X153133800Y-103526200D02*
X152510000Y-103600000D01*
X153210000Y-103526200D02*
X153133800Y-103526200D01*
X153248200Y-103526200D02*
X153210000Y-103526200D01*
X153312200Y-103496800D02*
X153248200Y-103526200D01*
X153456800Y-103352200D02*
X153312200Y-103496800D01*
X153926200Y-102716600D02*
X153456800Y-103352200D01*
X153926200Y-102685000D02*
X153926200Y-102716600D01*
X153926200Y-102608800D02*
X153926200Y-102685000D01*
X154350000Y-102350000D02*
X153926200Y-102608800D01*
D25*
X159766000Y-108199678D02*
X159766000Y-108458000D01*
X162859630Y-106680000D02*
X161285678Y-106680000D01*
X161285678Y-106680000D02*
X159766000Y-108199678D01*
G04 #@! TO.N,+3V3*
X157671900Y-99007200D02*
X157671900Y-98437581D01*
X157671900Y-98437581D02*
X157715009Y-98394472D01*
X157715009Y-98394472D02*
X157715009Y-98134991D01*
X157715009Y-98134991D02*
X157850000Y-98000000D01*
D26*
X152500022Y-98557463D02*
X152062963Y-98557463D01*
D24*
X148282401Y-107237401D02*
X149908799Y-107237401D01*
X149908799Y-107237401D02*
X150059900Y-107086300D01*
X151583467Y-98899033D02*
X151994000Y-98488500D01*
X147670000Y-106625000D02*
X148282401Y-107237401D01*
X151200000Y-100816242D02*
X151583467Y-100432775D01*
X150059900Y-103511582D02*
X151200000Y-102371482D01*
X147670000Y-106460000D02*
X147670000Y-106625000D01*
X151200000Y-102371482D02*
X151200000Y-100816242D01*
X151583467Y-100432775D02*
X151583467Y-98899033D01*
X150059900Y-107086300D02*
X150059900Y-103511582D01*
D26*
X152062963Y-98557463D02*
X151994000Y-98488500D01*
X152609159Y-98666600D02*
X152500022Y-98557463D01*
X152670800Y-98666600D02*
X152609159Y-98666600D01*
D24*
X155553782Y-99357199D02*
X154916483Y-98719900D01*
X157671900Y-99007200D02*
X157321901Y-99357199D01*
X157321901Y-99357199D02*
X155553782Y-99357199D01*
X154916483Y-98719900D02*
X152724900Y-98719900D01*
X148110000Y-104100000D02*
X148110000Y-103600000D01*
X148110000Y-104600000D02*
X148110000Y-104100000D01*
X147670000Y-106460000D02*
X147670000Y-105040000D01*
X147670000Y-105040000D02*
X148110000Y-104600000D01*
X147670000Y-106460000D02*
X147670000Y-107705000D01*
D23*
X152670800Y-98666600D02*
X152724900Y-98719900D01*
X152491800Y-98488500D02*
X152670800Y-98666600D01*
X151994000Y-98488500D02*
X152491800Y-98488500D01*
D24*
X158810000Y-101280000D02*
X158810000Y-100145300D01*
X158810000Y-100145300D02*
X157671900Y-99007200D01*
X162425000Y-100820189D02*
X162100000Y-100820189D01*
X158810000Y-101280000D02*
X159485000Y-101280000D01*
X159485000Y-101280000D02*
X159944811Y-100820189D01*
X159944811Y-100820189D02*
X162425000Y-100820189D01*
D23*
X162100000Y-100820189D02*
X159798412Y-100868988D01*
D25*
X159185000Y-106320000D02*
X159185000Y-105818500D01*
X159185000Y-105818500D02*
X158639000Y-105272500D01*
X162132400Y-104014900D02*
X160530100Y-104014900D01*
X160530100Y-104014900D02*
X159185000Y-105360000D01*
X159185000Y-105360000D02*
X159185000Y-106320000D01*
D23*
X159798412Y-100868988D02*
X159387400Y-101280000D01*
X159387400Y-101280000D02*
X158810000Y-101280000D01*
X158615000Y-107877500D02*
X159099000Y-107877500D01*
X159099000Y-107877500D02*
X159163500Y-107813000D01*
X158639000Y-107367500D02*
X158639000Y-107853500D01*
X158639000Y-107853500D02*
X158615000Y-107877500D01*
X159185000Y-106320000D02*
X159185000Y-106821500D01*
X159185000Y-106821500D02*
X158639000Y-107367500D01*
X158639000Y-105272500D02*
X158718000Y-105272500D01*
X158718000Y-105272500D02*
X159163500Y-104827000D01*
X158639000Y-105272500D02*
X158639000Y-104786500D01*
X158639000Y-104786500D02*
X158615000Y-104762500D01*
X147670000Y-106883800D02*
X147670000Y-106460000D01*
X147670000Y-106960000D02*
X147670000Y-106883800D01*
X147670000Y-107660000D02*
X147670000Y-106960000D01*
X147670000Y-107736200D02*
X147670000Y-107660000D01*
X147670000Y-108160000D02*
X147670000Y-107736200D01*
D24*
X162884902Y-104767402D02*
X164385154Y-104767402D01*
X164385154Y-104767402D02*
X165075000Y-104077556D01*
X165075000Y-104077556D02*
X165075000Y-101485678D01*
X165075000Y-101485678D02*
X164589313Y-100999991D01*
X162610656Y-100820189D02*
X162425000Y-100820189D01*
X164589313Y-100999991D02*
X162790458Y-100999991D01*
X162132400Y-104014900D02*
X162884902Y-104767402D01*
X162790458Y-100999991D02*
X162610656Y-100820189D01*
D23*
G04 #@! TO.N,Net-(P1-Pad3)*
X161471200Y-98203800D02*
X161730000Y-97780000D01*
X161395000Y-98203800D02*
X161471200Y-98203800D01*
X161363400Y-98203800D02*
X161395000Y-98203800D01*
X159000200Y-99389400D02*
X161363400Y-98203800D01*
G04 #@! TO.N,Net-(C2-Pad1)*
X157703391Y-100498988D02*
X156047514Y-100498988D01*
X158108800Y-101656200D02*
X158108800Y-100904397D01*
X158232600Y-101780000D02*
X158108800Y-101656200D01*
X155451577Y-103163423D02*
X154515000Y-104100000D01*
X154515000Y-104100000D02*
X154350000Y-104100000D01*
X155451577Y-101094925D02*
X155451577Y-103163423D01*
X156047514Y-100498988D02*
X155451577Y-101094925D01*
X158810000Y-101780000D02*
X158232600Y-101780000D01*
X158108800Y-100904397D02*
X157703391Y-100498988D01*
D24*
G04 #@! TO.N,+12V*
X155805188Y-101241395D02*
X155805188Y-103947584D01*
X155040371Y-104712401D02*
X154542599Y-104712401D01*
X158135000Y-102280000D02*
X157612401Y-101757401D01*
X154542599Y-104712401D02*
X152625000Y-106630000D01*
X152625000Y-106630000D02*
X152460000Y-106630000D01*
X156193984Y-100852599D02*
X155805188Y-101241395D01*
X157556921Y-100852599D02*
X156193984Y-100852599D01*
X155805188Y-103947584D02*
X155040371Y-104712401D01*
X157612401Y-100908079D02*
X157556921Y-100852599D01*
X157612401Y-101757401D02*
X157612401Y-100908079D01*
X158810000Y-102280000D02*
X158135000Y-102280000D01*
D25*
X162412907Y-101297599D02*
X160567401Y-101297599D01*
X160567401Y-101297599D02*
X159085000Y-102780000D01*
X159085000Y-102780000D02*
X158810000Y-102780000D01*
X163265308Y-102150000D02*
X162412907Y-101297599D01*
X164040000Y-102150000D02*
X163265308Y-102150000D01*
X151231300Y-103826800D02*
X151231300Y-103529378D01*
X151231300Y-103529378D02*
X151660678Y-103100000D01*
D24*
X152510000Y-104600000D02*
X151725000Y-104600000D01*
D25*
X151231300Y-103826800D02*
X151231300Y-104321774D01*
X151231300Y-104321774D02*
X151509526Y-104600000D01*
X151509526Y-104600000D02*
X151725000Y-104600000D01*
X152460000Y-106630000D02*
X152460000Y-104650000D01*
X152460000Y-104650000D02*
X152507599Y-104602401D01*
X148150000Y-99385000D02*
X148150000Y-98115000D01*
D24*
X149427412Y-100496177D02*
X149427412Y-100001203D01*
X149427412Y-100001203D02*
X148811209Y-99385000D01*
X148811209Y-99385000D02*
X148150000Y-99385000D01*
X151660678Y-103100000D02*
X152510000Y-103100000D01*
X152460000Y-104650000D02*
X152510000Y-104600000D01*
D23*
X158810000Y-102630000D02*
X158810000Y-102430000D01*
D25*
X158810000Y-102780000D02*
X158810000Y-102282401D01*
D23*
X158810000Y-102353800D02*
X158810000Y-102280000D01*
X158810000Y-102430000D02*
X158810000Y-102353800D01*
X158810000Y-102706200D02*
X158810000Y-102630000D01*
X158810000Y-102780000D02*
X158810000Y-102706200D01*
D24*
X164040000Y-104096000D02*
X164084000Y-104140000D01*
X164040000Y-102150000D02*
X164040000Y-104096000D01*
D25*
G04 #@! TO.N,Net-(D1-Pad2)*
X167300000Y-108250000D02*
X164090000Y-108250000D01*
X164090000Y-108250000D02*
X164040000Y-108300000D01*
D24*
X168565679Y-100735416D02*
X168565679Y-106984321D01*
X168565679Y-106984321D02*
X167300000Y-108250000D01*
X169560240Y-99235260D02*
X169560240Y-99740855D01*
X169560240Y-99740855D02*
X168565679Y-100735416D01*
G04 #@! TO.N,Net-(D1-Pad3)*
X166370000Y-100781918D02*
X166370000Y-104352176D01*
X166370000Y-104352176D02*
X162422176Y-108300000D01*
X166621159Y-100530759D02*
X166370000Y-100781918D01*
X168201241Y-100530759D02*
X166621159Y-100530759D01*
X168607839Y-100124161D02*
X168201241Y-100530759D01*
X169560240Y-97235260D02*
X168607839Y-98187661D01*
X162422176Y-108300000D02*
X161500000Y-108300000D01*
X168607839Y-98187661D02*
X168607839Y-100124161D01*
D23*
G04 #@! TO.N,Net-(L1-Pad1)*
X156225000Y-104762500D02*
X155741000Y-104762500D01*
X155741000Y-104762500D02*
X155676500Y-104827000D01*
X156201000Y-105272500D02*
X156201000Y-104786500D01*
X156201000Y-104786500D02*
X156225000Y-104762500D01*
X155655000Y-106320000D02*
X155655000Y-105818500D01*
X155655000Y-105818500D02*
X156201000Y-105272500D01*
X156201000Y-107367500D02*
X156201000Y-106866000D01*
X156201000Y-106866000D02*
X155655000Y-106320000D01*
X156225000Y-107877500D02*
X156225000Y-107391500D01*
X156225000Y-107391500D02*
X156201000Y-107367500D01*
X155676500Y-107813000D02*
X156160500Y-107813000D01*
X156160500Y-107813000D02*
X156225000Y-107877500D01*
X156567500Y-104451200D02*
X156225000Y-104762500D01*
X156567500Y-104375000D02*
X156567500Y-104451200D01*
X156567500Y-102930000D02*
X156567500Y-104375000D01*
X156567500Y-102853800D02*
X156567500Y-102930000D01*
X156910000Y-102780000D02*
X156567500Y-102853800D01*
G04 #@! TO.N,Net-(Q1-Pad2)*
X163480000Y-97780000D02*
X163480000Y-100092980D01*
X163480000Y-100092980D02*
X163200390Y-100372590D01*
G04 #@! TD*
D27*
G04 #@! TO.N,GND*
G36*
X151427289Y-105435000D02*
X151427293Y-105435000D01*
X151509526Y-105451357D01*
X151591759Y-105435000D01*
X151625001Y-105435000D01*
X151625000Y-106712236D01*
X151673448Y-106955800D01*
X151857999Y-107232001D01*
X152134199Y-107416552D01*
X152460000Y-107481358D01*
X152785800Y-107416552D01*
X152878814Y-107354402D01*
X152921537Y-107345904D01*
X153172929Y-107177929D01*
X153215331Y-107114470D01*
X154572560Y-105757242D01*
X154572560Y-107715000D01*
X154573049Y-107717458D01*
X154572480Y-107720454D01*
X154599131Y-107848582D01*
X154621843Y-107962765D01*
X154623350Y-107965021D01*
X154623924Y-107967779D01*
X154692017Y-108067786D01*
X154762191Y-108172809D01*
X154764637Y-108174443D01*
X154766099Y-108176591D01*
X155288549Y-108690000D01*
X150396473Y-108690000D01*
X150396802Y-108688344D01*
X150420146Y-108672746D01*
X150459824Y-108613364D01*
X150492566Y-108580622D01*
X150551945Y-108540946D01*
X150591622Y-108481566D01*
X150591624Y-108481564D01*
X150702294Y-108315935D01*
X150709136Y-108305696D01*
X150750400Y-108098246D01*
X150750400Y-108098242D01*
X150764332Y-108028201D01*
X150750400Y-107958159D01*
X150750400Y-107940588D01*
X150885033Y-107805955D01*
X150934592Y-107775409D01*
X150984122Y-107706866D01*
X150993424Y-107697564D01*
X151025097Y-107650162D01*
X151100306Y-107546083D01*
X151103427Y-107532933D01*
X151110935Y-107521697D01*
X151135988Y-107395745D01*
X151149151Y-107340287D01*
X151149633Y-107327146D01*
X151166132Y-107244201D01*
X151154774Y-107187100D01*
X151220597Y-105393886D01*
X151427289Y-105435000D01*
X151427289Y-105435000D01*
G37*
X151427289Y-105435000D02*
X151427293Y-105435000D01*
X151509526Y-105451357D01*
X151591759Y-105435000D01*
X151625001Y-105435000D01*
X151625000Y-106712236D01*
X151673448Y-106955800D01*
X151857999Y-107232001D01*
X152134199Y-107416552D01*
X152460000Y-107481358D01*
X152785800Y-107416552D01*
X152878814Y-107354402D01*
X152921537Y-107345904D01*
X153172929Y-107177929D01*
X153215331Y-107114470D01*
X154572560Y-105757242D01*
X154572560Y-107715000D01*
X154573049Y-107717458D01*
X154572480Y-107720454D01*
X154599131Y-107848582D01*
X154621843Y-107962765D01*
X154623350Y-107965021D01*
X154623924Y-107967779D01*
X154692017Y-108067786D01*
X154762191Y-108172809D01*
X154764637Y-108174443D01*
X154766099Y-108176591D01*
X155288549Y-108690000D01*
X150396473Y-108690000D01*
X150396802Y-108688344D01*
X150420146Y-108672746D01*
X150459824Y-108613364D01*
X150492566Y-108580622D01*
X150551945Y-108540946D01*
X150591622Y-108481566D01*
X150591624Y-108481564D01*
X150702294Y-108315935D01*
X150709136Y-108305696D01*
X150750400Y-108098246D01*
X150750400Y-108098242D01*
X150764332Y-108028201D01*
X150750400Y-107958159D01*
X150750400Y-107940588D01*
X150885033Y-107805955D01*
X150934592Y-107775409D01*
X150984122Y-107706866D01*
X150993424Y-107697564D01*
X151025097Y-107650162D01*
X151100306Y-107546083D01*
X151103427Y-107532933D01*
X151110935Y-107521697D01*
X151135988Y-107395745D01*
X151149151Y-107340287D01*
X151149633Y-107327146D01*
X151166132Y-107244201D01*
X151154774Y-107187100D01*
X151220597Y-105393886D01*
X151427289Y-105435000D01*
G36*
X160261673Y-103009699D02*
X160434528Y-103182553D01*
X160204299Y-103228348D01*
X159928099Y-103412899D01*
X159881515Y-103482618D01*
X159476473Y-103887659D01*
X159324157Y-103787796D01*
X159307765Y-103776843D01*
X159307315Y-103776753D01*
X159299886Y-103771883D01*
X159051701Y-103724764D01*
X159038259Y-103727560D01*
X158170000Y-103727560D01*
X157922235Y-103776843D01*
X157712191Y-103917191D01*
X157571843Y-104127235D01*
X157522560Y-104375000D01*
X157522560Y-105141506D01*
X157522493Y-105141823D01*
X157522560Y-105142183D01*
X157522560Y-105150000D01*
X157545421Y-105264932D01*
X157568746Y-105390171D01*
X157571031Y-105393683D01*
X157571843Y-105397765D01*
X157642111Y-105502928D01*
X157706517Y-105601915D01*
X157712022Y-105607556D01*
X157712191Y-105607809D01*
X157712414Y-105607958D01*
X158102560Y-106007756D01*
X158102560Y-106632244D01*
X157712414Y-107032042D01*
X157712191Y-107032191D01*
X157712022Y-107032444D01*
X157706517Y-107038085D01*
X157642123Y-107137054D01*
X157571843Y-107242235D01*
X157571031Y-107246318D01*
X157568746Y-107249830D01*
X157545424Y-107375053D01*
X157522560Y-107490000D01*
X157522560Y-107497818D01*
X157522493Y-107498178D01*
X157522560Y-107498495D01*
X157522560Y-108265000D01*
X157571843Y-108512765D01*
X157690269Y-108690000D01*
X157149731Y-108690000D01*
X157268157Y-108512765D01*
X157317440Y-108265000D01*
X157317440Y-107498494D01*
X157317507Y-107498177D01*
X157317440Y-107497817D01*
X157317440Y-107490000D01*
X157294579Y-107375068D01*
X157271254Y-107249829D01*
X157268969Y-107246317D01*
X157268157Y-107242235D01*
X157197889Y-107137072D01*
X157133483Y-107038085D01*
X157127978Y-107032444D01*
X157127809Y-107032191D01*
X157127586Y-107032042D01*
X156916040Y-106815262D01*
X156912200Y-106795958D01*
X156912200Y-106795954D01*
X156870936Y-106588504D01*
X156796699Y-106477401D01*
X156753424Y-106412635D01*
X156753422Y-106412633D01*
X156737440Y-106388714D01*
X156737440Y-106007756D01*
X157127586Y-105607958D01*
X157127809Y-105607809D01*
X157127978Y-105607556D01*
X157133483Y-105601915D01*
X157197877Y-105502946D01*
X157268157Y-105397765D01*
X157268969Y-105393682D01*
X157271254Y-105390170D01*
X157294576Y-105264947D01*
X157317440Y-105150000D01*
X157317440Y-105142182D01*
X157317507Y-105141822D01*
X157317440Y-105141505D01*
X157317440Y-104375000D01*
X157278700Y-104180239D01*
X157278700Y-103577440D01*
X157335000Y-103577440D01*
X157582765Y-103528157D01*
X157792809Y-103387809D01*
X157860000Y-103287251D01*
X157927191Y-103387809D01*
X158137235Y-103528157D01*
X158385000Y-103577440D01*
X158538937Y-103577440D01*
X158810000Y-103631358D01*
X158892237Y-103615000D01*
X159002767Y-103615000D01*
X159085000Y-103631357D01*
X159167233Y-103615000D01*
X159167237Y-103615000D01*
X159410801Y-103566552D01*
X159462116Y-103532264D01*
X159482765Y-103528157D01*
X159692809Y-103387809D01*
X159762787Y-103283080D01*
X160195624Y-102850243D01*
X160261673Y-103009699D01*
X160261673Y-103009699D01*
G37*
X160261673Y-103009699D02*
X160434528Y-103182553D01*
X160204299Y-103228348D01*
X159928099Y-103412899D01*
X159881515Y-103482618D01*
X159476473Y-103887659D01*
X159324157Y-103787796D01*
X159307765Y-103776843D01*
X159307315Y-103776753D01*
X159299886Y-103771883D01*
X159051701Y-103724764D01*
X159038259Y-103727560D01*
X158170000Y-103727560D01*
X157922235Y-103776843D01*
X157712191Y-103917191D01*
X157571843Y-104127235D01*
X157522560Y-104375000D01*
X157522560Y-105141506D01*
X157522493Y-105141823D01*
X157522560Y-105142183D01*
X157522560Y-105150000D01*
X157545421Y-105264932D01*
X157568746Y-105390171D01*
X157571031Y-105393683D01*
X157571843Y-105397765D01*
X157642111Y-105502928D01*
X157706517Y-105601915D01*
X157712022Y-105607556D01*
X157712191Y-105607809D01*
X157712414Y-105607958D01*
X158102560Y-106007756D01*
X158102560Y-106632244D01*
X157712414Y-107032042D01*
X157712191Y-107032191D01*
X157712022Y-107032444D01*
X157706517Y-107038085D01*
X157642123Y-107137054D01*
X157571843Y-107242235D01*
X157571031Y-107246318D01*
X157568746Y-107249830D01*
X157545424Y-107375053D01*
X157522560Y-107490000D01*
X157522560Y-107497818D01*
X157522493Y-107498178D01*
X157522560Y-107498495D01*
X157522560Y-108265000D01*
X157571843Y-108512765D01*
X157690269Y-108690000D01*
X157149731Y-108690000D01*
X157268157Y-108512765D01*
X157317440Y-108265000D01*
X157317440Y-107498494D01*
X157317507Y-107498177D01*
X157317440Y-107497817D01*
X157317440Y-107490000D01*
X157294579Y-107375068D01*
X157271254Y-107249829D01*
X157268969Y-107246317D01*
X157268157Y-107242235D01*
X157197889Y-107137072D01*
X157133483Y-107038085D01*
X157127978Y-107032444D01*
X157127809Y-107032191D01*
X157127586Y-107032042D01*
X156916040Y-106815262D01*
X156912200Y-106795958D01*
X156912200Y-106795954D01*
X156870936Y-106588504D01*
X156796699Y-106477401D01*
X156753424Y-106412635D01*
X156753422Y-106412633D01*
X156737440Y-106388714D01*
X156737440Y-106007756D01*
X157127586Y-105607958D01*
X157127809Y-105607809D01*
X157127978Y-105607556D01*
X157133483Y-105601915D01*
X157197877Y-105502946D01*
X157268157Y-105397765D01*
X157268969Y-105393682D01*
X157271254Y-105390170D01*
X157294576Y-105264947D01*
X157317440Y-105150000D01*
X157317440Y-105142182D01*
X157317507Y-105141822D01*
X157317440Y-105141505D01*
X157317440Y-104375000D01*
X157278700Y-104180239D01*
X157278700Y-103577440D01*
X157335000Y-103577440D01*
X157582765Y-103528157D01*
X157792809Y-103387809D01*
X157860000Y-103287251D01*
X157927191Y-103387809D01*
X158137235Y-103528157D01*
X158385000Y-103577440D01*
X158538937Y-103577440D01*
X158810000Y-103631358D01*
X158892237Y-103615000D01*
X159002767Y-103615000D01*
X159085000Y-103631357D01*
X159167233Y-103615000D01*
X159167237Y-103615000D01*
X159410801Y-103566552D01*
X159462116Y-103532264D01*
X159482765Y-103528157D01*
X159692809Y-103387809D01*
X159762787Y-103283080D01*
X160195624Y-102850243D01*
X160261673Y-103009699D01*
G36*
X160152560Y-108690000D02*
X159551451Y-108690000D01*
X160073901Y-108176591D01*
X160075363Y-108174443D01*
X160077809Y-108172809D01*
X160147975Y-108067799D01*
X160152560Y-108061065D01*
X160152560Y-108690000D01*
X160152560Y-108690000D01*
G37*
X160152560Y-108690000D02*
X159551451Y-108690000D01*
X160073901Y-108176591D01*
X160075363Y-108174443D01*
X160077809Y-108172809D01*
X160147975Y-108067799D01*
X160152560Y-108061065D01*
X160152560Y-108690000D01*
G36*
X169672000Y-107729020D02*
X169692000Y-107729020D01*
X169692000Y-107983020D01*
X169672000Y-107983020D01*
X169672000Y-108003020D01*
X169418000Y-108003020D01*
X169418000Y-107983020D01*
X169398000Y-107983020D01*
X169398000Y-107729020D01*
X169418000Y-107729020D01*
X169418000Y-107709020D01*
X169672000Y-107709020D01*
X169672000Y-107729020D01*
X169672000Y-107729020D01*
G37*
X169672000Y-107729020D02*
X169692000Y-107729020D01*
X169692000Y-107983020D01*
X169672000Y-107983020D01*
X169672000Y-108003020D01*
X169418000Y-108003020D01*
X169418000Y-107983020D01*
X169398000Y-107983020D01*
X169398000Y-107729020D01*
X169418000Y-107729020D01*
X169418000Y-107709020D01*
X169672000Y-107709020D01*
X169672000Y-107729020D01*
G36*
X161574442Y-104849942D02*
X161936471Y-104999900D01*
X162042598Y-104999900D01*
X162294573Y-105251875D01*
X162336973Y-105315331D01*
X162588365Y-105483306D01*
X162810050Y-105527402D01*
X162810054Y-105527402D01*
X162884902Y-105542290D01*
X162959750Y-105527402D01*
X164119972Y-105527402D01*
X162445902Y-107201472D01*
X162200000Y-107152560D01*
X160800000Y-107152560D01*
X160552235Y-107201843D01*
X160342191Y-107342191D01*
X160267440Y-107454063D01*
X160267440Y-105458427D01*
X160875968Y-104849900D01*
X161574400Y-104849900D01*
X161574442Y-104849942D01*
X161574442Y-104849942D01*
G37*
X161574442Y-104849942D02*
X161936471Y-104999900D01*
X162042598Y-104999900D01*
X162294573Y-105251875D01*
X162336973Y-105315331D01*
X162588365Y-105483306D01*
X162810050Y-105527402D01*
X162810054Y-105527402D01*
X162884902Y-105542290D01*
X162959750Y-105527402D01*
X164119972Y-105527402D01*
X162445902Y-107201472D01*
X162200000Y-107152560D01*
X160800000Y-107152560D01*
X160552235Y-107201843D01*
X160342191Y-107342191D01*
X160267440Y-107454063D01*
X160267440Y-105458427D01*
X160875968Y-104849900D01*
X161574400Y-104849900D01*
X161574442Y-104849942D01*
G36*
X161647000Y-102277000D02*
X161627000Y-102277000D01*
X161627000Y-102297000D01*
X161373000Y-102297000D01*
X161373000Y-102277000D01*
X161353000Y-102277000D01*
X161353000Y-102132599D01*
X161647000Y-102132599D01*
X161647000Y-102277000D01*
X161647000Y-102277000D01*
G37*
X161647000Y-102277000D02*
X161627000Y-102277000D01*
X161627000Y-102297000D01*
X161373000Y-102297000D01*
X161373000Y-102277000D01*
X161353000Y-102277000D01*
X161353000Y-102132599D01*
X161647000Y-102132599D01*
X161647000Y-102277000D01*
G36*
X154223000Y-102214227D02*
X154223000Y-102203000D01*
X154279442Y-102203000D01*
X154223000Y-102214227D01*
X154223000Y-102214227D01*
G37*
X154223000Y-102214227D02*
X154223000Y-102203000D01*
X154279442Y-102203000D01*
X154223000Y-102214227D01*
G36*
X149802633Y-102171800D02*
X149444326Y-102171800D01*
X149437146Y-102161054D01*
X149349323Y-102102372D01*
X149331737Y-102087865D01*
X149267809Y-101992191D01*
X149238986Y-101972932D01*
X149381846Y-101628040D01*
X149381846Y-101481177D01*
X149623341Y-101481177D01*
X149802633Y-101406911D01*
X149802633Y-102171800D01*
X149802633Y-102171800D01*
G37*
X149802633Y-102171800D02*
X149444326Y-102171800D01*
X149437146Y-102161054D01*
X149349323Y-102102372D01*
X149331737Y-102087865D01*
X149267809Y-101992191D01*
X149238986Y-101972932D01*
X149381846Y-101628040D01*
X149381846Y-101481177D01*
X149623341Y-101481177D01*
X149802633Y-101406911D01*
X149802633Y-102171800D01*
G36*
X153311673Y-101655302D02*
X153247580Y-101810035D01*
X153210000Y-101802560D01*
X153174690Y-101802560D01*
X153174690Y-101722908D01*
X153127297Y-101608492D01*
X153133348Y-101602440D01*
X153364535Y-101602440D01*
X153311673Y-101655302D01*
X153311673Y-101655302D01*
G37*
X153311673Y-101655302D02*
X153247580Y-101810035D01*
X153210000Y-101802560D01*
X153174690Y-101802560D01*
X153174690Y-101722908D01*
X153127297Y-101608492D01*
X153133348Y-101602440D01*
X153364535Y-101602440D01*
X153311673Y-101655302D01*
G36*
X152140000Y-97130750D02*
X152140000Y-97271310D01*
X152229768Y-97488028D01*
X152176843Y-97567235D01*
X152141876Y-97743027D01*
X151993999Y-97713612D01*
X151697462Y-97772597D01*
X151509527Y-97898171D01*
X151098994Y-98308704D01*
X151046729Y-98343627D01*
X150667903Y-98343627D01*
X150305874Y-98493585D01*
X150028790Y-98770669D01*
X149878832Y-99132698D01*
X149878832Y-99348847D01*
X149867227Y-99366216D01*
X149569070Y-99068060D01*
X149523157Y-98837235D01*
X149464868Y-98750000D01*
X149523157Y-98662765D01*
X149572440Y-98415000D01*
X149572440Y-97815000D01*
X149523157Y-97567235D01*
X149504299Y-97539013D01*
X149722929Y-97392929D01*
X149765330Y-97329471D01*
X150067203Y-97027599D01*
X152243151Y-97027599D01*
X152140000Y-97130750D01*
X152140000Y-97130750D01*
G37*
X152140000Y-97130750D02*
X152140000Y-97271310D01*
X152229768Y-97488028D01*
X152176843Y-97567235D01*
X152141876Y-97743027D01*
X151993999Y-97713612D01*
X151697462Y-97772597D01*
X151509527Y-97898171D01*
X151098994Y-98308704D01*
X151046729Y-98343627D01*
X150667903Y-98343627D01*
X150305874Y-98493585D01*
X150028790Y-98770669D01*
X149878832Y-99132698D01*
X149878832Y-99348847D01*
X149867227Y-99366216D01*
X149569070Y-99068060D01*
X149523157Y-98837235D01*
X149464868Y-98750000D01*
X149523157Y-98662765D01*
X149572440Y-98415000D01*
X149572440Y-97815000D01*
X149523157Y-97567235D01*
X149504299Y-97539013D01*
X149722929Y-97392929D01*
X149765330Y-97329471D01*
X150067203Y-97027599D01*
X152243151Y-97027599D01*
X152140000Y-97130750D01*
G36*
X156227000Y-97873000D02*
X156247000Y-97873000D01*
X156247000Y-98017401D01*
X156201130Y-98017401D01*
X156091281Y-97853000D01*
X156227000Y-97853000D01*
X156227000Y-97873000D01*
X156227000Y-97873000D01*
G37*
X156227000Y-97873000D02*
X156247000Y-97873000D01*
X156247000Y-98017401D01*
X156201130Y-98017401D01*
X156091281Y-97853000D01*
X156227000Y-97853000D01*
X156227000Y-97873000D01*
G36*
X155226673Y-97140301D02*
X155137742Y-97355000D01*
X154925334Y-97355000D01*
X154960000Y-97271310D01*
X154960000Y-97130750D01*
X154856849Y-97027599D01*
X155339376Y-97027599D01*
X155226673Y-97140301D01*
X155226673Y-97140301D01*
G37*
X155226673Y-97140301D02*
X155137742Y-97355000D01*
X154925334Y-97355000D01*
X154960000Y-97271310D01*
X154960000Y-97130750D01*
X154856849Y-97027599D01*
X155339376Y-97027599D01*
X155226673Y-97140301D01*
G04 #@! TD*
M02*
