G04 #@! TF.GenerationSoftware,KiCad,Pcbnew,5.0.0-rc3-unknown-520c611~65~ubuntu18.04.1*
G04 #@! TF.CreationDate,2018-07-03T00:15:53+02:00*
G04 #@! TF.ProjectId,vlakinostalo,766C616B696E6F7374616C6F2E6B6963,rev?*
G04 #@! TF.SameCoordinates,Original*
G04 #@! TF.FileFunction,Soldermask,Bot*
G04 #@! TF.FilePolarity,Negative*
%FSLAX46Y46*%
G04 Gerber Fmt 4.6, Leading zero omitted, Abs format (unit mm)*
G04 Created by KiCad (PCBNEW 5.0.0-rc3-unknown-520c611~65~ubuntu18.04.1) date Tue Jul  3 00:15:53 2018*
%MOMM*%
%LPD*%
G01*
G04 APERTURE LIST*
%ADD10R,0.700000X1.100000*%
%ADD11R,1.400000X1.070000*%
%ADD12O,1.750000X1.750000*%
%ADD13R,1.750000X1.750000*%
%ADD14R,1.070000X1.400000*%
%ADD15R,1.300000X2.900000*%
%ADD16R,3.400000X3.400000*%
%ADD17C,0.100000*%
%ADD18C,1.650000*%
%ADD19C,1.275000*%
G04 APERTURE END LIST*
D10*
G04 #@! TO.C,Q1*
X161800000Y-101600000D03*
X160800000Y-101600000D03*
X161800000Y-100100000D03*
X161300000Y-101600000D03*
X160800000Y-100100000D03*
X161300000Y-100100000D03*
G04 #@! TD*
D11*
G04 #@! TO.C,R1*
X161150000Y-106750000D03*
X161150000Y-108500000D03*
G04 #@! TD*
G04 #@! TO.C,R2*
X161150000Y-103450000D03*
X161150000Y-105200000D03*
G04 #@! TD*
D12*
G04 #@! TO.C,J2*
X169560240Y-97235260D03*
D13*
X169560240Y-99235260D03*
G04 #@! TD*
D14*
G04 #@! TO.C,SW1*
X164625000Y-98450000D03*
X162875000Y-98450000D03*
G04 #@! TD*
D11*
G04 #@! TO.C,R8*
X161240000Y-96760000D03*
X161240000Y-98510000D03*
G04 #@! TD*
D13*
G04 #@! TO.C,M1*
X167350000Y-97250000D03*
D12*
X167350000Y-99250000D03*
G04 #@! TD*
D14*
G04 #@! TO.C,SW2*
X162875000Y-96850000D03*
X164625000Y-96850000D03*
G04 #@! TD*
D15*
G04 #@! TO.C,P1*
X149630000Y-108570000D03*
X148130000Y-108570000D03*
X151130000Y-108570000D03*
X152630000Y-108570000D03*
X154130000Y-108570000D03*
X155630000Y-108570000D03*
X157130000Y-108570000D03*
X158630000Y-108570000D03*
X158630000Y-97170000D03*
X157130000Y-97170000D03*
X155630000Y-97170000D03*
X154130000Y-97170000D03*
X152630000Y-97170000D03*
X151130000Y-97170000D03*
X149630000Y-97170000D03*
D16*
X154730000Y-104370000D03*
G04 #@! TD*
D17*
G04 #@! TO.C,C3*
G36*
X165390086Y-107352649D02*
X165422120Y-107357401D01*
X165453534Y-107365270D01*
X165484026Y-107376180D01*
X165513301Y-107390026D01*
X165541078Y-107406675D01*
X165567090Y-107425967D01*
X165591085Y-107447715D01*
X165612833Y-107471710D01*
X165632125Y-107497722D01*
X165648774Y-107525499D01*
X165662620Y-107554774D01*
X165673530Y-107585266D01*
X165681399Y-107616680D01*
X165686151Y-107648714D01*
X165687740Y-107681060D01*
X165687740Y-108671060D01*
X165686151Y-108703406D01*
X165681399Y-108735440D01*
X165673530Y-108766854D01*
X165662620Y-108797346D01*
X165648774Y-108826621D01*
X165632125Y-108854398D01*
X165612833Y-108880410D01*
X165591085Y-108904405D01*
X165567090Y-108926153D01*
X165541078Y-108945445D01*
X165513301Y-108962094D01*
X165484026Y-108975940D01*
X165453534Y-108986850D01*
X165422120Y-108994719D01*
X165390086Y-108999471D01*
X165357740Y-109001060D01*
X162967740Y-109001060D01*
X162935394Y-108999471D01*
X162903360Y-108994719D01*
X162871946Y-108986850D01*
X162841454Y-108975940D01*
X162812179Y-108962094D01*
X162784402Y-108945445D01*
X162758390Y-108926153D01*
X162734395Y-108904405D01*
X162712647Y-108880410D01*
X162693355Y-108854398D01*
X162676706Y-108826621D01*
X162662860Y-108797346D01*
X162651950Y-108766854D01*
X162644081Y-108735440D01*
X162639329Y-108703406D01*
X162637740Y-108671060D01*
X162637740Y-107681060D01*
X162639329Y-107648714D01*
X162644081Y-107616680D01*
X162651950Y-107585266D01*
X162662860Y-107554774D01*
X162676706Y-107525499D01*
X162693355Y-107497722D01*
X162712647Y-107471710D01*
X162734395Y-107447715D01*
X162758390Y-107425967D01*
X162784402Y-107406675D01*
X162812179Y-107390026D01*
X162841454Y-107376180D01*
X162871946Y-107365270D01*
X162903360Y-107357401D01*
X162935394Y-107352649D01*
X162967740Y-107351060D01*
X165357740Y-107351060D01*
X165390086Y-107352649D01*
X165390086Y-107352649D01*
G37*
D18*
X164162740Y-108176060D03*
D17*
G36*
X165390086Y-104552649D02*
X165422120Y-104557401D01*
X165453534Y-104565270D01*
X165484026Y-104576180D01*
X165513301Y-104590026D01*
X165541078Y-104606675D01*
X165567090Y-104625967D01*
X165591085Y-104647715D01*
X165612833Y-104671710D01*
X165632125Y-104697722D01*
X165648774Y-104725499D01*
X165662620Y-104754774D01*
X165673530Y-104785266D01*
X165681399Y-104816680D01*
X165686151Y-104848714D01*
X165687740Y-104881060D01*
X165687740Y-105871060D01*
X165686151Y-105903406D01*
X165681399Y-105935440D01*
X165673530Y-105966854D01*
X165662620Y-105997346D01*
X165648774Y-106026621D01*
X165632125Y-106054398D01*
X165612833Y-106080410D01*
X165591085Y-106104405D01*
X165567090Y-106126153D01*
X165541078Y-106145445D01*
X165513301Y-106162094D01*
X165484026Y-106175940D01*
X165453534Y-106186850D01*
X165422120Y-106194719D01*
X165390086Y-106199471D01*
X165357740Y-106201060D01*
X162967740Y-106201060D01*
X162935394Y-106199471D01*
X162903360Y-106194719D01*
X162871946Y-106186850D01*
X162841454Y-106175940D01*
X162812179Y-106162094D01*
X162784402Y-106145445D01*
X162758390Y-106126153D01*
X162734395Y-106104405D01*
X162712647Y-106080410D01*
X162693355Y-106054398D01*
X162676706Y-106026621D01*
X162662860Y-105997346D01*
X162651950Y-105966854D01*
X162644081Y-105935440D01*
X162639329Y-105903406D01*
X162637740Y-105871060D01*
X162637740Y-104881060D01*
X162639329Y-104848714D01*
X162644081Y-104816680D01*
X162651950Y-104785266D01*
X162662860Y-104754774D01*
X162676706Y-104725499D01*
X162693355Y-104697722D01*
X162712647Y-104671710D01*
X162734395Y-104647715D01*
X162758390Y-104625967D01*
X162784402Y-104606675D01*
X162812179Y-104590026D01*
X162841454Y-104576180D01*
X162871946Y-104565270D01*
X162903360Y-104557401D01*
X162935394Y-104552649D01*
X162967740Y-104551060D01*
X165357740Y-104551060D01*
X165390086Y-104552649D01*
X165390086Y-104552649D01*
G37*
D18*
X164162740Y-105376060D03*
G04 #@! TD*
D17*
G04 #@! TO.C,C4*
G36*
X168410146Y-104517089D02*
X168442180Y-104521841D01*
X168473594Y-104529710D01*
X168504086Y-104540620D01*
X168533361Y-104554466D01*
X168561138Y-104571115D01*
X168587150Y-104590407D01*
X168611145Y-104612155D01*
X168632893Y-104636150D01*
X168652185Y-104662162D01*
X168668834Y-104689939D01*
X168682680Y-104719214D01*
X168693590Y-104749706D01*
X168701459Y-104781120D01*
X168706211Y-104813154D01*
X168707800Y-104845500D01*
X168707800Y-105835500D01*
X168706211Y-105867846D01*
X168701459Y-105899880D01*
X168693590Y-105931294D01*
X168682680Y-105961786D01*
X168668834Y-105991061D01*
X168652185Y-106018838D01*
X168632893Y-106044850D01*
X168611145Y-106068845D01*
X168587150Y-106090593D01*
X168561138Y-106109885D01*
X168533361Y-106126534D01*
X168504086Y-106140380D01*
X168473594Y-106151290D01*
X168442180Y-106159159D01*
X168410146Y-106163911D01*
X168377800Y-106165500D01*
X165987800Y-106165500D01*
X165955454Y-106163911D01*
X165923420Y-106159159D01*
X165892006Y-106151290D01*
X165861514Y-106140380D01*
X165832239Y-106126534D01*
X165804462Y-106109885D01*
X165778450Y-106090593D01*
X165754455Y-106068845D01*
X165732707Y-106044850D01*
X165713415Y-106018838D01*
X165696766Y-105991061D01*
X165682920Y-105961786D01*
X165672010Y-105931294D01*
X165664141Y-105899880D01*
X165659389Y-105867846D01*
X165657800Y-105835500D01*
X165657800Y-104845500D01*
X165659389Y-104813154D01*
X165664141Y-104781120D01*
X165672010Y-104749706D01*
X165682920Y-104719214D01*
X165696766Y-104689939D01*
X165713415Y-104662162D01*
X165732707Y-104636150D01*
X165754455Y-104612155D01*
X165778450Y-104590407D01*
X165804462Y-104571115D01*
X165832239Y-104554466D01*
X165861514Y-104540620D01*
X165892006Y-104529710D01*
X165923420Y-104521841D01*
X165955454Y-104517089D01*
X165987800Y-104515500D01*
X168377800Y-104515500D01*
X168410146Y-104517089D01*
X168410146Y-104517089D01*
G37*
D18*
X167182800Y-105340500D03*
D17*
G36*
X168410146Y-107317089D02*
X168442180Y-107321841D01*
X168473594Y-107329710D01*
X168504086Y-107340620D01*
X168533361Y-107354466D01*
X168561138Y-107371115D01*
X168587150Y-107390407D01*
X168611145Y-107412155D01*
X168632893Y-107436150D01*
X168652185Y-107462162D01*
X168668834Y-107489939D01*
X168682680Y-107519214D01*
X168693590Y-107549706D01*
X168701459Y-107581120D01*
X168706211Y-107613154D01*
X168707800Y-107645500D01*
X168707800Y-108635500D01*
X168706211Y-108667846D01*
X168701459Y-108699880D01*
X168693590Y-108731294D01*
X168682680Y-108761786D01*
X168668834Y-108791061D01*
X168652185Y-108818838D01*
X168632893Y-108844850D01*
X168611145Y-108868845D01*
X168587150Y-108890593D01*
X168561138Y-108909885D01*
X168533361Y-108926534D01*
X168504086Y-108940380D01*
X168473594Y-108951290D01*
X168442180Y-108959159D01*
X168410146Y-108963911D01*
X168377800Y-108965500D01*
X165987800Y-108965500D01*
X165955454Y-108963911D01*
X165923420Y-108959159D01*
X165892006Y-108951290D01*
X165861514Y-108940380D01*
X165832239Y-108926534D01*
X165804462Y-108909885D01*
X165778450Y-108890593D01*
X165754455Y-108868845D01*
X165732707Y-108844850D01*
X165713415Y-108818838D01*
X165696766Y-108791061D01*
X165682920Y-108761786D01*
X165672010Y-108731294D01*
X165664141Y-108699880D01*
X165659389Y-108667846D01*
X165657800Y-108635500D01*
X165657800Y-107645500D01*
X165659389Y-107613154D01*
X165664141Y-107581120D01*
X165672010Y-107549706D01*
X165682920Y-107519214D01*
X165696766Y-107489939D01*
X165713415Y-107462162D01*
X165732707Y-107436150D01*
X165754455Y-107412155D01*
X165778450Y-107390407D01*
X165804462Y-107371115D01*
X165832239Y-107354466D01*
X165861514Y-107340620D01*
X165892006Y-107329710D01*
X165923420Y-107321841D01*
X165955454Y-107317089D01*
X165987800Y-107315500D01*
X168377800Y-107315500D01*
X168410146Y-107317089D01*
X168410146Y-107317089D01*
G37*
D18*
X167182800Y-108140500D03*
G04 #@! TD*
D13*
G04 #@! TO.C,J1*
X169545000Y-107856020D03*
D12*
X169545000Y-105856020D03*
G04 #@! TD*
D13*
G04 #@! TO.C,J3*
X167518080Y-101483160D03*
D12*
X169518080Y-101483160D03*
X167518080Y-103483160D03*
X169518080Y-103483160D03*
G04 #@! TD*
D17*
G04 #@! TO.C,R5*
G36*
X165703993Y-100926535D02*
X165734935Y-100931125D01*
X165765278Y-100938725D01*
X165794730Y-100949263D01*
X165823008Y-100962638D01*
X165849838Y-100978719D01*
X165874963Y-100997353D01*
X165898140Y-101018360D01*
X165919147Y-101041537D01*
X165937781Y-101066662D01*
X165953862Y-101093492D01*
X165967237Y-101121770D01*
X165977775Y-101151222D01*
X165985375Y-101181565D01*
X165989965Y-101212507D01*
X165991500Y-101243750D01*
X165991500Y-101956250D01*
X165989965Y-101987493D01*
X165985375Y-102018435D01*
X165977775Y-102048778D01*
X165967237Y-102078230D01*
X165953862Y-102106508D01*
X165937781Y-102133338D01*
X165919147Y-102158463D01*
X165898140Y-102181640D01*
X165874963Y-102202647D01*
X165849838Y-102221281D01*
X165823008Y-102237362D01*
X165794730Y-102250737D01*
X165765278Y-102261275D01*
X165734935Y-102268875D01*
X165703993Y-102273465D01*
X165672750Y-102275000D01*
X165035250Y-102275000D01*
X165004007Y-102273465D01*
X164973065Y-102268875D01*
X164942722Y-102261275D01*
X164913270Y-102250737D01*
X164884992Y-102237362D01*
X164858162Y-102221281D01*
X164833037Y-102202647D01*
X164809860Y-102181640D01*
X164788853Y-102158463D01*
X164770219Y-102133338D01*
X164754138Y-102106508D01*
X164740763Y-102078230D01*
X164730225Y-102048778D01*
X164722625Y-102018435D01*
X164718035Y-101987493D01*
X164716500Y-101956250D01*
X164716500Y-101243750D01*
X164718035Y-101212507D01*
X164722625Y-101181565D01*
X164730225Y-101151222D01*
X164740763Y-101121770D01*
X164754138Y-101093492D01*
X164770219Y-101066662D01*
X164788853Y-101041537D01*
X164809860Y-101018360D01*
X164833037Y-100997353D01*
X164858162Y-100978719D01*
X164884992Y-100962638D01*
X164913270Y-100949263D01*
X164942722Y-100938725D01*
X164973065Y-100931125D01*
X165004007Y-100926535D01*
X165035250Y-100925000D01*
X165672750Y-100925000D01*
X165703993Y-100926535D01*
X165703993Y-100926535D01*
G37*
D19*
X165354000Y-101600000D03*
D17*
G36*
X164128993Y-100926535D02*
X164159935Y-100931125D01*
X164190278Y-100938725D01*
X164219730Y-100949263D01*
X164248008Y-100962638D01*
X164274838Y-100978719D01*
X164299963Y-100997353D01*
X164323140Y-101018360D01*
X164344147Y-101041537D01*
X164362781Y-101066662D01*
X164378862Y-101093492D01*
X164392237Y-101121770D01*
X164402775Y-101151222D01*
X164410375Y-101181565D01*
X164414965Y-101212507D01*
X164416500Y-101243750D01*
X164416500Y-101956250D01*
X164414965Y-101987493D01*
X164410375Y-102018435D01*
X164402775Y-102048778D01*
X164392237Y-102078230D01*
X164378862Y-102106508D01*
X164362781Y-102133338D01*
X164344147Y-102158463D01*
X164323140Y-102181640D01*
X164299963Y-102202647D01*
X164274838Y-102221281D01*
X164248008Y-102237362D01*
X164219730Y-102250737D01*
X164190278Y-102261275D01*
X164159935Y-102268875D01*
X164128993Y-102273465D01*
X164097750Y-102275000D01*
X163460250Y-102275000D01*
X163429007Y-102273465D01*
X163398065Y-102268875D01*
X163367722Y-102261275D01*
X163338270Y-102250737D01*
X163309992Y-102237362D01*
X163283162Y-102221281D01*
X163258037Y-102202647D01*
X163234860Y-102181640D01*
X163213853Y-102158463D01*
X163195219Y-102133338D01*
X163179138Y-102106508D01*
X163165763Y-102078230D01*
X163155225Y-102048778D01*
X163147625Y-102018435D01*
X163143035Y-101987493D01*
X163141500Y-101956250D01*
X163141500Y-101243750D01*
X163143035Y-101212507D01*
X163147625Y-101181565D01*
X163155225Y-101151222D01*
X163165763Y-101121770D01*
X163179138Y-101093492D01*
X163195219Y-101066662D01*
X163213853Y-101041537D01*
X163234860Y-101018360D01*
X163258037Y-100997353D01*
X163283162Y-100978719D01*
X163309992Y-100962638D01*
X163338270Y-100949263D01*
X163367722Y-100938725D01*
X163398065Y-100931125D01*
X163429007Y-100926535D01*
X163460250Y-100925000D01*
X164097750Y-100925000D01*
X164128993Y-100926535D01*
X164128993Y-100926535D01*
G37*
D19*
X163779000Y-101600000D03*
G04 #@! TD*
D17*
G04 #@! TO.C,R7*
G36*
X165729493Y-102450535D02*
X165760435Y-102455125D01*
X165790778Y-102462725D01*
X165820230Y-102473263D01*
X165848508Y-102486638D01*
X165875338Y-102502719D01*
X165900463Y-102521353D01*
X165923640Y-102542360D01*
X165944647Y-102565537D01*
X165963281Y-102590662D01*
X165979362Y-102617492D01*
X165992737Y-102645770D01*
X166003275Y-102675222D01*
X166010875Y-102705565D01*
X166015465Y-102736507D01*
X166017000Y-102767750D01*
X166017000Y-103480250D01*
X166015465Y-103511493D01*
X166010875Y-103542435D01*
X166003275Y-103572778D01*
X165992737Y-103602230D01*
X165979362Y-103630508D01*
X165963281Y-103657338D01*
X165944647Y-103682463D01*
X165923640Y-103705640D01*
X165900463Y-103726647D01*
X165875338Y-103745281D01*
X165848508Y-103761362D01*
X165820230Y-103774737D01*
X165790778Y-103785275D01*
X165760435Y-103792875D01*
X165729493Y-103797465D01*
X165698250Y-103799000D01*
X165060750Y-103799000D01*
X165029507Y-103797465D01*
X164998565Y-103792875D01*
X164968222Y-103785275D01*
X164938770Y-103774737D01*
X164910492Y-103761362D01*
X164883662Y-103745281D01*
X164858537Y-103726647D01*
X164835360Y-103705640D01*
X164814353Y-103682463D01*
X164795719Y-103657338D01*
X164779638Y-103630508D01*
X164766263Y-103602230D01*
X164755725Y-103572778D01*
X164748125Y-103542435D01*
X164743535Y-103511493D01*
X164742000Y-103480250D01*
X164742000Y-102767750D01*
X164743535Y-102736507D01*
X164748125Y-102705565D01*
X164755725Y-102675222D01*
X164766263Y-102645770D01*
X164779638Y-102617492D01*
X164795719Y-102590662D01*
X164814353Y-102565537D01*
X164835360Y-102542360D01*
X164858537Y-102521353D01*
X164883662Y-102502719D01*
X164910492Y-102486638D01*
X164938770Y-102473263D01*
X164968222Y-102462725D01*
X164998565Y-102455125D01*
X165029507Y-102450535D01*
X165060750Y-102449000D01*
X165698250Y-102449000D01*
X165729493Y-102450535D01*
X165729493Y-102450535D01*
G37*
D19*
X165379500Y-103124000D03*
D17*
G36*
X164154493Y-102450535D02*
X164185435Y-102455125D01*
X164215778Y-102462725D01*
X164245230Y-102473263D01*
X164273508Y-102486638D01*
X164300338Y-102502719D01*
X164325463Y-102521353D01*
X164348640Y-102542360D01*
X164369647Y-102565537D01*
X164388281Y-102590662D01*
X164404362Y-102617492D01*
X164417737Y-102645770D01*
X164428275Y-102675222D01*
X164435875Y-102705565D01*
X164440465Y-102736507D01*
X164442000Y-102767750D01*
X164442000Y-103480250D01*
X164440465Y-103511493D01*
X164435875Y-103542435D01*
X164428275Y-103572778D01*
X164417737Y-103602230D01*
X164404362Y-103630508D01*
X164388281Y-103657338D01*
X164369647Y-103682463D01*
X164348640Y-103705640D01*
X164325463Y-103726647D01*
X164300338Y-103745281D01*
X164273508Y-103761362D01*
X164245230Y-103774737D01*
X164215778Y-103785275D01*
X164185435Y-103792875D01*
X164154493Y-103797465D01*
X164123250Y-103799000D01*
X163485750Y-103799000D01*
X163454507Y-103797465D01*
X163423565Y-103792875D01*
X163393222Y-103785275D01*
X163363770Y-103774737D01*
X163335492Y-103761362D01*
X163308662Y-103745281D01*
X163283537Y-103726647D01*
X163260360Y-103705640D01*
X163239353Y-103682463D01*
X163220719Y-103657338D01*
X163204638Y-103630508D01*
X163191263Y-103602230D01*
X163180725Y-103572778D01*
X163173125Y-103542435D01*
X163168535Y-103511493D01*
X163167000Y-103480250D01*
X163167000Y-102767750D01*
X163168535Y-102736507D01*
X163173125Y-102705565D01*
X163180725Y-102675222D01*
X163191263Y-102645770D01*
X163204638Y-102617492D01*
X163220719Y-102590662D01*
X163239353Y-102565537D01*
X163260360Y-102542360D01*
X163283537Y-102521353D01*
X163308662Y-102502719D01*
X163335492Y-102486638D01*
X163363770Y-102473263D01*
X163393222Y-102462725D01*
X163423565Y-102455125D01*
X163454507Y-102450535D01*
X163485750Y-102449000D01*
X164123250Y-102449000D01*
X164154493Y-102450535D01*
X164154493Y-102450535D01*
G37*
D19*
X163804500Y-103124000D03*
G04 #@! TD*
M02*
