M48
;DRILL file {KiCad 5.0.0-rc3-unknown-520c611~65~ubuntu18.04.1} date Tue Jul  3 00:15:57 2018
;FORMAT={-:-/ absolute / inch / decimal}
FMAT,2
INCH,TZ
T1C0.0118
T2C0.0315
%
G90
G05
M72
T1
X5.8424Y-3.9934
X5.883Y-3.9565
X5.898Y-4.026
X5.9395Y-3.9106
X5.954Y-4.0877
X5.9917Y-4.0126
X5.9926Y-3.9039
X6.0373Y-4.0124
X6.2076Y-3.8979
X6.2253Y-4.0744
X6.2599Y-3.913
X6.29Y-4.27
X6.3832Y-4.0951
X6.4118Y-4.2
X6.4252Y-3.9517
X6.46Y-4.1
T2
X6.5886Y-3.8287
X6.5886Y-3.9075
X6.675Y-4.1676
X6.675Y-4.2463
X6.6756Y-3.8282
X6.6756Y-3.9069
X6.5952Y-3.9954
X6.5952Y-4.0741
X6.6739Y-3.9954
X6.6739Y-4.0741
T0
M30
